<svg width="41" height="41" viewBox="0 0 41 41" fill="none" xmlns="http://www.w3.org/2000/svg">
<path d="M9.23762 5.71045H32.4154C33.2936 5.71045 34.1358 6.0593 34.7567 6.68025C35.3777 7.3012 35.7265 8.1434 35.7265 9.02156V32.1993C35.7265 33.0775 35.3777 33.9197 34.7567 34.5406C34.1358 35.1616 33.2936 35.5104 32.4154 35.5104H9.23762C8.35946 35.5104 7.51727 35.1616 6.89632 34.5406C6.27536 33.9197 5.92651 33.0775 5.92651 32.1993V9.02156C5.92651 8.1434 6.27536 7.3012 6.89632 6.68025C7.51727 6.0593 8.35946 5.71045 9.23762 5.71045ZM30.7598 9.02156H26.621C25.0842 9.02156 23.6103 9.63204 22.5237 10.7187C21.437 11.8054 20.8265 13.2792 20.8265 14.816V18.9549H17.5154V23.9216H20.8265V35.5104H25.7932V23.9216H30.7598V18.9549H25.7932V15.6438C25.7932 15.2047 25.9676 14.7836 26.2781 14.4731C26.5886 14.1627 27.0097 13.9882 27.4487 13.9882H30.7598V9.02156Z" fill="#2E8896"/>
</svg>
