<svg width="41" height="41" viewBox="0 0 41 41" fill="none" xmlns="http://www.w3.org/2000/svg">
<path d="M13.7146 8.76348H26.0448C27.628 8.76829 29.145 9.39937 30.2646 10.5189C31.3842 11.6385 32.0153 13.1557 32.02 14.739V27.0686C32.0153 28.652 31.3842 30.1691 30.2646 31.2888C29.145 32.4084 27.6278 33.0394 26.0444 33.0442H13.7149C12.1315 33.0394 10.6143 32.4084 9.49474 31.2888C8.3752 30.1692 7.74412 28.6522 7.73931 27.0689V14.7387C7.74412 13.1555 8.3752 11.6384 9.49474 10.5189C10.6143 9.39937 12.1313 8.76829 13.7146 8.76348ZM26.045 5.91542H13.7143C8.86109 5.91542 4.89125 9.88526 4.89125 14.7385V27.0692C4.89125 31.9224 8.86109 35.8922 13.7143 35.8922H26.045C30.8982 35.8922 34.8681 31.9224 34.8681 27.0692V14.7385C34.8681 9.88526 30.8982 5.91542 26.045 5.91542Z" fill="#2E8896" stroke="#2E8896" stroke-width="0.382051"/>
<rect x="7.03052" y="8.38477" width="25.2154" height="25.2154" rx="3.82051" fill="#2E8896"/>
<path d="M27.8942 14.9294C27.4907 14.9294 27.0962 14.8097 26.7607 14.5855C26.4251 14.3613 26.1635 14.0426 26.0091 13.6697C25.8546 13.2968 25.8142 12.8865 25.8929 12.4906C25.9717 12.0948 26.166 11.7311 26.4514 11.4457C26.7368 11.1603 27.1005 10.966 27.4963 10.8872C27.8922 10.8085 28.3025 10.8489 28.6754 11.0034C29.0483 11.1578 29.367 11.4194 29.5912 11.755C29.8154 12.0905 29.935 12.4849 29.9351 12.8883C29.9351 12.8885 29.9351 12.8886 29.9351 12.8887H29.7441L27.8942 14.9294ZM27.8942 14.9294C27.8942 14.9294 27.8941 14.9294 27.894 14.9294L27.8944 14.7384V14.9294C27.8944 14.9294 27.8943 14.9294 27.8942 14.9294ZM19.8796 16.1621C20.8174 16.1621 21.734 16.4402 22.5137 16.9612C23.2935 17.4822 23.9012 18.2228 24.2601 19.0892C24.619 19.9556 24.7129 20.909 24.53 21.8288C24.347 22.7486 23.8954 23.5935 23.2323 24.2566C22.5691 24.9198 21.7242 25.3714 20.8045 25.5543C19.8847 25.7373 18.9313 25.6434 18.0649 25.2845C17.1984 24.9256 16.4579 24.3178 15.9369 23.5381C15.4158 22.7583 15.1378 21.8416 15.1378 20.9038C15.1392 19.6466 15.6392 18.4414 16.5281 17.5525C17.4171 16.6635 18.6224 16.1635 19.8796 16.1621ZM19.8794 13.314C18.3783 13.314 16.9109 13.7592 15.6628 14.5931C14.4147 15.4271 13.4419 16.6125 12.8674 17.9993C12.293 19.3861 12.1427 20.9122 12.4355 22.3844C12.7284 23.8567 13.4512 25.2091 14.5127 26.2705C15.5741 27.3319 16.9265 28.0548 18.3987 28.3476C19.871 28.6405 21.397 28.4902 22.7839 27.9157C24.1707 27.3413 25.3561 26.3685 26.19 25.1204C27.024 23.8723 27.4691 22.4049 27.4691 20.9038C27.4691 18.8908 26.6695 16.9604 25.2461 15.537C23.8228 14.1137 21.8923 13.314 19.8794 13.314Z" fill="white" stroke="white" stroke-width="0.382051"/>
</svg>
