<svg width="41" height="41" viewBox="0 0 41 41" fill="none" xmlns="http://www.w3.org/2000/svg">
<path d="M32.1088 5.71045C32.9869 5.71045 33.8291 6.0593 34.4501 6.68025C35.071 7.3012 35.4199 8.1434 35.4199 9.02156V32.1993C35.4199 33.0775 35.071 33.9197 34.4501 34.5406C33.8291 35.1616 32.9869 35.5104 32.1088 35.5104H8.93098C8.05282 35.5104 7.21063 35.1616 6.58967 34.5406C5.96872 33.9197 5.61987 33.0775 5.61987 32.1993V9.02156C5.61987 8.1434 5.96872 7.3012 6.58967 6.68025C7.21063 6.0593 8.05282 5.71045 8.93098 5.71045H32.1088ZM31.281 31.3716V22.5971C31.281 21.1657 30.7124 19.7929 29.7002 18.7808C28.6881 17.7686 27.3153 17.2 25.8839 17.2C24.4767 17.2 22.8377 18.0609 22.043 19.3522V17.5146H17.424V31.3716H22.043V23.2097C22.043 21.9349 23.0694 20.8919 24.3442 20.8919C24.9589 20.8919 25.5485 21.1361 25.9831 21.5708C26.4178 22.0054 26.662 22.595 26.662 23.2097V31.3716H31.281ZM12.0434 14.9153C12.7811 14.9153 13.4885 14.6223 14.0101 14.1007C14.5317 13.5791 14.8248 12.8717 14.8248 12.134C14.8248 10.5943 13.5831 9.33612 12.0434 9.33612C11.3014 9.33612 10.5897 9.63089 10.065 10.1556C9.54032 10.6803 9.24554 11.392 9.24554 12.134C9.24554 13.6737 10.5038 14.9153 12.0434 14.9153ZM14.3447 31.3716V17.5146H9.75876V31.3716H14.3447Z" fill="#2E8896"/>
</svg>
