<svg width="25" height="24" viewBox="0 0 25 24" fill="none" xmlns="http://www.w3.org/2000/svg">
<path d="M16.357 14H15.567L15.287 13.73C15.912 13.004 16.3687 12.1488 16.6246 11.2256C16.8804 10.3025 16.9291 9.33415 16.767 8.39C16.297 5.61 13.977 3.39 11.177 3.05C10.1926 2.92547 9.19282 3.02777 8.25406 3.34909C7.31529 3.67041 6.46247 4.20222 5.76086 4.90383C5.05925 5.60544 4.52744 6.45826 4.20612 7.39702C3.8848 8.33579 3.7825 9.33562 3.90703 10.32C4.24703 13.12 6.46703 15.44 9.24703 15.91C10.1912 16.0721 11.1595 16.0234 12.0826 15.7676C13.0058 15.5117 13.861 15.0549 14.587 14.43L14.857 14.71V15.5L19.107 19.75C19.517 20.16 20.187 20.16 20.597 19.75C21.007 19.34 21.007 18.67 20.597 18.26L16.357 14ZM10.357 14C7.86703 14 5.85703 11.99 5.85703 9.5C5.85703 7.01 7.86703 5 10.357 5C12.847 5 14.857 7.01 14.857 9.5C14.857 11.99 12.847 14 10.357 14Z" fill="white"/>
</svg>
