<svg width="40" height="41" viewBox="0 0 40 41" fill="none" xmlns="http://www.w3.org/2000/svg">
<ellipse cx="19.8667" cy="20.6105" rx="12.9897" ry="11.4615" fill="#2E8896"/>
<rect x="8.40503" y="27.4873" width="5.34872" height="4.58462" fill="#2E8896"/>
<path d="M13.487 33.3012L6.16136 35.2268L5.84159 35.3108L5.92848 34.9918L7.88072 27.8243C6.67764 25.6987 6.03451 23.2955 6.03451 20.8224C6.03451 13.0224 12.3911 6.66568 20.1911 6.6655C20.1912 6.6655 20.1913 6.6655 20.1914 6.6655V6.85653L13.487 33.3012ZM13.487 33.3012C15.5414 34.4063 17.8453 34.9935 20.1914 34.9935C27.9916 34.9935 34.3484 28.6367 34.3484 20.8365C34.3484 17.0516 32.8769 13.494 30.2059 10.8228L13.487 33.3012ZM13.8012 30.3758L9.72419 31.4473L10.8068 27.4823L10.8292 27.4L10.783 27.3284L10.5025 26.8937C10.5023 26.8933 10.5021 26.8929 10.5018 26.8926C9.36252 25.0728 8.75756 22.9695 8.75596 20.8224C8.75596 14.5298 13.8847 9.40104 20.1774 9.40104C23.227 9.40104 26.0954 10.5928 28.2438 12.7551L28.2446 12.7558C29.3082 13.8146 30.1512 15.074 30.7245 16.461C31.2979 17.848 31.5902 19.335 31.5847 20.8358L31.5847 20.8374C31.6124 27.1289 26.4845 32.2438 20.1914 32.2438C18.1404 32.2438 16.1307 31.6896 14.3703 30.6501C14.3701 30.65 14.3699 30.6498 14.3696 30.6497L13.948 30.3967L13.879 30.3553L13.8012 30.3758ZM24.252 22.4354L24.2521 22.4352L24.2424 22.4318C24.0869 22.3777 23.9089 22.3182 23.7323 22.3378C23.5352 22.3597 23.3752 22.4724 23.2346 22.6709L23.2346 22.6709L23.2325 22.6739C23.0003 23.0154 22.3452 23.7965 22.1475 24.0225L22.1474 24.0225L22.1438 24.0269C22.0645 24.1232 22.0033 24.1529 21.9469 24.1594C21.8815 24.167 21.7818 24.1484 21.6184 24.0634L21.6184 24.0633L21.6129 24.0607C21.5589 24.0347 21.489 24.0046 21.4048 23.9684C20.9194 23.7594 19.9604 23.3465 18.8531 22.357L18.8529 22.3569C17.8356 21.4496 17.1582 20.3328 16.9463 19.9798C16.8695 19.8416 16.878 19.7662 16.8956 19.7173C16.9194 19.651 16.975 19.5879 17.0711 19.4919C17.1831 19.3799 17.3191 19.2156 17.4447 19.0638C17.5003 18.9966 17.5539 18.9318 17.6025 18.8751C17.7731 18.676 17.855 18.5112 17.9521 18.3158C17.9614 18.297 17.9709 18.2779 17.9806 18.2584L17.9807 18.2585L17.9826 18.2543C18.1304 17.9403 18.0503 17.6773 17.9524 17.4816C17.8725 17.3217 17.1719 15.613 16.8879 14.903L16.8879 14.903L16.8869 14.9005C16.737 14.5409 16.5675 14.3442 16.3723 14.2504C16.2237 14.179 16.0632 14.1785 15.9775 14.1782C15.9594 14.1781 15.9446 14.1781 15.9341 14.1774L15.9341 14.1769H15.9213H15.2449C14.9609 14.1769 14.5401 14.2777 14.1742 14.6755L14.1742 14.6755L14.1714 14.6786C14.1478 14.7054 14.1206 14.7353 14.0903 14.7685C13.7235 15.1707 12.9118 16.0608 12.9118 17.722C12.9118 18.6247 13.2399 19.5016 13.5808 20.1726C13.9195 20.8394 14.2792 21.3189 14.3706 21.4407L14.3716 21.4421C14.3788 21.4524 14.3896 21.4682 14.4039 21.4891C14.7398 21.9807 17.0146 25.3098 20.4109 26.7755C21.2508 27.1456 21.9062 27.3594 22.4173 27.5156C23.2873 27.7954 24.0805 27.7498 24.6993 27.6634L24.7005 27.6632C25.0749 27.6086 25.6188 27.3829 26.101 27.073C26.5779 26.7664 27.0433 26.3463 27.2065 25.875C27.3598 25.4513 27.4373 25.0583 27.4634 24.7474C27.4764 24.592 27.4769 24.454 27.4663 24.3409C27.4567 24.2371 27.4356 24.1254 27.3849 24.0458C27.3086 23.9259 27.1953 23.8505 27.0774 23.7877C27.0075 23.7505 26.9207 23.7104 26.8258 23.6666C26.7676 23.6397 26.7063 23.6114 26.644 23.5815C26.5612 23.5418 26.3979 23.4622 26.1933 23.3625C25.5483 23.0482 24.4926 22.5338 24.252 22.4354Z" fill="#2E8896" stroke="#2E8896" stroke-width="0.382051"/>
<path d="M24.2521 22.4354L24.252 22.4356C24.4926 22.534 25.5483 23.0484 26.1932 23.3627C26.3979 23.4624 26.5612 23.542 26.644 23.5817C26.7063 23.6116 26.7676 23.6399 26.8258 23.6668C26.9207 23.7106 27.0075 23.7507 27.0774 23.7879C27.1953 23.8507 27.3086 23.9261 27.3849 24.046C27.4355 24.1256 27.4567 24.2373 27.4663 24.3411C27.4769 24.4542 27.4764 24.5922 27.4634 24.7476C27.4373 25.0585 27.3598 25.4515 27.2065 25.8752M24.2521 22.4354L27.0264 25.8115M24.2521 22.4354L24.2424 22.432C24.0869 22.3779 23.9089 22.3184 23.7323 22.338C23.5352 22.3599 23.3752 22.4726 23.2346 22.6711L23.2346 22.6711L23.2325 22.6741C23.0003 23.0156 22.3452 23.7967 22.1475 24.0227L22.1474 24.0227L22.1438 24.0271C22.0645 24.1234 22.0033 24.1531 21.9469 24.1596C21.8815 24.1672 21.7818 24.1486 21.6184 24.0636L21.6184 24.0635L21.6129 24.0609C21.5589 24.0349 21.489 24.0048 21.4048 23.9686C20.9193 23.7596 19.9603 23.3467 18.8531 22.3572L18.8529 22.3571C17.8356 21.4498 17.1582 20.333 16.9463 19.98C16.8695 19.8418 16.878 19.7664 16.8956 19.7175C16.9194 19.6512 16.975 19.5881 17.0711 19.4921C17.1831 19.3801 17.319 19.2158 17.4447 19.064C17.5003 18.9968 17.5539 18.932 17.6025 18.8753C17.7731 18.6762 17.855 18.5114 17.9521 18.316C17.9614 18.2972 17.9709 18.2781 17.9806 18.2586L17.9807 18.2587L17.9826 18.2545C18.1304 17.9405 18.0503 17.6775 17.9524 17.4818C17.8725 17.3219 17.1719 15.6132 16.8879 14.9032L16.8879 14.9032L16.8869 14.9007C16.737 14.5411 16.5675 14.3444 16.3722 14.2506C16.2237 14.1792 16.0631 14.1787 15.9775 14.1784C15.9594 14.1783 15.9446 14.1783 15.934 14.1776L15.9341 14.1771H15.9213H15.2449C14.9608 14.1771 14.5401 14.2779 14.1742 14.6757L14.1741 14.6757L14.1714 14.6788C14.1478 14.7056 14.1206 14.7355 14.0903 14.7687C13.7234 15.1709 12.9118 16.061 12.9118 17.7222C12.9118 18.6202 13.2365 19.4927 13.5754 20.1622C13.9156 20.8344 14.2786 21.3183 14.3706 21.441L14.3716 21.4423C14.3788 21.4526 14.3896 21.4684 14.4039 21.4893C14.7398 21.9809 17.0147 25.3101 20.4111 26.7758M24.2521 22.4354L20.4874 26.6007M27.2065 25.8752C27.2063 25.8756 27.2062 25.8761 27.206 25.8765L27.0264 25.8115M27.2065 25.8752C27.2067 25.8747 27.2068 25.8742 27.207 25.8737L27.0264 25.8115M27.2065 25.8752C27.0434 26.3464 26.5779 26.7666 26.1009 27.0732C25.6188 27.3831 25.0749 27.6088 24.7005 27.6634L24.6993 27.6636C24.0805 27.75 23.2873 27.7956 22.4173 27.5158M27.0264 25.8115C26.7446 26.6288 25.3494 27.3758 24.6729 27.4744C24.0669 27.559 23.3059 27.6012 22.4745 27.3335M22.4173 27.5158C22.4177 27.5159 22.4182 27.516 22.4186 27.5162L22.4745 27.3335M22.4173 27.5158C22.4168 27.5156 22.4164 27.5155 22.4159 27.5153L22.4745 27.3335M22.4173 27.5158C21.9062 27.3596 21.2509 27.1458 20.4111 26.7758M22.4745 27.3335C21.9671 27.1785 21.3189 26.9671 20.4874 26.6007M20.4874 26.6007L20.4117 26.7761C20.4115 26.776 20.4113 26.7759 20.4111 26.7758M20.4874 26.6007L20.4103 26.7755C20.4106 26.7756 20.4108 26.7757 20.4111 26.7758" fill="white" stroke="white" stroke-width="0.382051"/>
</svg>
