<svg width="40" height="41" viewBox="0 0 40 41" fill="none" xmlns="http://www.w3.org/2000/svg">
<g clip-path="url(#clip0_1220_1203)">
<path d="M20.2599 5.70801H20.4809C22.5222 5.71546 32.8653 5.78996 35.6541 6.53992C36.4972 6.76881 37.2654 7.21495 37.882 7.83376C38.4987 8.45257 38.9421 9.22238 39.168 10.0663C39.4188 11.0099 39.5952 12.259 39.7144 13.5479L39.7392 13.8062L39.7938 14.4518L39.8137 14.7101C39.9751 16.9799 39.995 19.1056 39.9975 19.57V19.7562C39.995 20.238 39.9726 22.5078 39.7938 24.8719L39.774 25.1326L39.7516 25.3909C39.6274 26.8114 39.4437 28.2219 39.168 29.2599C38.9421 30.1038 38.4987 30.8736 37.882 31.4924C37.2654 32.1113 36.4972 32.5574 35.6541 32.7863C32.7734 33.5611 21.8244 33.6157 20.3071 33.6182H19.9545C19.1871 33.6182 16.0134 33.6033 12.6858 33.4891L12.2636 33.4742L12.0475 33.4642L11.6229 33.4468L11.1982 33.4295C8.44173 33.3078 5.81685 33.1116 4.60747 32.7838C3.76469 32.5551 2.99665 32.1094 2.38005 31.491C1.76344 30.8727 1.31984 30.1034 1.09355 29.2599C0.817902 28.2244 0.634135 26.8114 0.509968 25.3909L0.490102 25.1302L0.470235 24.8719C0.346971 23.1892 0.279056 21.503 0.266602 19.8158L0.266602 19.5104C0.271568 18.9765 0.291435 17.1313 0.425535 15.095L0.442918 14.8392L0.450368 14.7101L0.470235 14.4518L0.524868 13.8062L0.549702 13.5479C0.668902 12.259 0.845218 11.0074 1.09603 10.0663C1.32194 9.22238 1.76537 8.45257 2.382 7.83376C2.99864 7.21495 3.76688 6.76881 4.60995 6.53992C5.81933 6.21709 8.44422 6.01842 11.2007 5.89426L11.6229 5.87687L12.05 5.86197L12.2636 5.85452L12.6882 5.83714C15.0516 5.76116 17.416 5.71894 19.7806 5.71049L20.2599 5.70801ZM16.1599 13.6795V25.6442L26.4832 19.6643L16.1599 13.6795Z" fill="#2E8896"/>
</g>
<defs>
<clipPath id="clip0_1220_1203">
<rect width="39.7333" height="39.7333" fill="white" transform="translate(0.266602 0.743652)"/>
</clipPath>
</defs>
</svg>
